<?xml version="1.0" encoding="iso-8859-1"?>
<!-- Generator: Adobe Illustrator 19.0.0, SVG Export Plug-In . SVG Version: 6.00 Build 0)  -->
<svg version="1.1" id="Capa_1" xmlns="http://www.w3.org/2000/svg" xmlns:xlink="http://www.w3.org/1999/xlink" x="0px" y="0px"
	 viewBox="0 0 375 375" style="enable-background:new 0 0 375 375;" xml:space="preserve">
<g>
	<g>
		<circle cx="264.64" cy="117.126" r="7.52"/>
	</g>
</g>
<g>
	<g>
		<circle cx="216.08" cy="117.126" r="7.52"/>
	</g>
</g>
<g>
	<g>
		<path d="M342.12,54.686c-22.258-17.12-49.643-26.224-77.72-25.84c-28.077-0.384-55.462,8.721-77.72,25.84
			c-20.32,16.24-32.88,38.8-32.88,63.8c0,2.08,0.08,4.133,0.24,6.16h-124C13.459,124.668,0.022,138.104,0,154.686v161.44
			c0.022,16.581,13.458,30.018,30.04,30.04H324.4c16.581-0.022,30.018-13.458,30.04-30.04v-145.64
			c13.018-14.213,20.339-32.727,20.56-52C375,93.486,362.44,70.966,342.12,54.686z M17,141.606c3.449-3.477,8.143-5.434,13.04-5.44
			h125.88c4.226,14.819,12.107,28.34,22.92,39.32c2.12,2.24,7.76,6.92,7.76,6.92l-5.36,35.52c-0.385,3.18,1.88,6.07,5.06,6.456
			c1.352,0.164,2.718-0.153,3.86-0.896l36-20.88c11.097,3.196,22.54,5.036,34.08,5.48l-83.04,56.44l-165.4-112.8
			C12.423,147.889,14.243,144.347,17,141.606z M342.84,316.126c-0.044,10.166-8.274,18.396-18.44,18.44H30.04
			c-10.213,0.022-18.516-8.227-18.56-18.44l0.08-150.52l162.4,110.68c1.982,1.385,4.618,1.385,6.6,0l101.64-69.36
			c10.79-1.254,21.363-3.945,31.44-8c21.28-9.8,29.2-17.12,29.2-17.12V316.126z M344.36,164.286
			c-9.813,10.326-21.775,18.369-35.04,23.56c-14.391,5.378-29.599,8.246-44.96,8.48c-12.645,0.678-25.295-1.256-37.16-5.68
			c-1.607-0.513-3.352-0.355-4.84,0.44l-28,16.24l4-27.2c0.11-0.978-0.028-1.969-0.4-2.88c-0.276-0.694-0.715-1.312-1.28-1.8
			c-7.82-6.224-14.763-13.476-20.64-21.56c-5.021-7.356-8.404-15.704-9.92-24.48v-0.44c-0.614-3.54-0.922-7.127-0.92-10.72
			c0.16-21.12,11.04-40.52,28.64-54.76c20.217-15.475,45.063-23.677,70.52-23.28c25.457-0.397,50.303,7.805,70.52,23.28
			c17.6,14.08,28.52,33.48,28.52,54.8C363.148,135.485,356.338,151.94,344.36,164.286z"/>
	</g>
</g>
<g>
	<g>
		<circle cx="313.2" cy="117.126" r="7.52"/>
	</g>
</g>
<g>
</g>
<g>
</g>
<g>
</g>
<g>
</g>
<g>
</g>
<g>
</g>
<g>
</g>
<g>
</g>
<g>
</g>
<g>
</g>
<g>
</g>
<g>
</g>
<g>
</g>
<g>
</g>
<g>
</g>
</svg>
